# xmcd CD database file
#
# Track frame offsets:
#	150
#	13049
#	29797
#	47993
#	63934
#	80033
#	98354
#	113037
#	133558
#	166492
#	187973
#	208101
#	225520
#	247201
#	264352
#	276258
#	300721
#
# Disc length: 4347 seconds
#
# Revision: 1
# Processed by: cddbd v1.5.2PL0 Copyright (c) Steve Scherf et al.
# Submitted via: CDex 1.51
#
DISCID=ed10f911
DTITLE=James Talley - Live
DYEAR=1900
DGENRE=Country
TTITLE0=Tryin' like the devil
TTITLE1=Woman trouble
TTITLE2=Whiskey on the side
TTITLE3=Dixie blues
TTITLE4=W. Lee O'Daniel and the light Crust Daughbos
TTITLE5=Not even when it's over
TTITLE6=Nothin' like love
TTITLE7=Find somebody and love them
TTITLE8=Survivors
TTITLE9=Bluesman
TTITLE10=I can't surrender
TTITLE11=We keep tryin'
TTITLE12=Are you gonna make us outlaws again
TTITLE13=Give my love to Marie
TTITLE14=Alabama summertime
TTITLE15=Take me to the country
TTITLE16=Take a whiff on me
EXTD=
EXTT0=
EXTT1=
EXTT2=
EXTT3=
EXTT4=
EXTT5=
EXTT6=
EXTT7=
EXTT8=
EXTT9=
EXTT10=
EXTT11=
EXTT12=
EXTT13=
EXTT14=
EXTT15=
EXTT16=
PLAYORDER=
